<?xml version="1.0" encoding="UTF-8"?>
<svg xmlns="http://www.w3.org/2000/svg" width="260" height="56" viewBox="0 0 300 64" fill="none">
  <defs>
    <linearGradient id="tile" x1="8" y1="8" x2="56" y2="57" gradientUnits="userSpaceOnUse">
      <stop offset="0" stop-color="#172c55"/>
      <stop offset="0.48" stop-color="#08152f"/>
      <stop offset="1" stop-color="#030817"/>
    </linearGradient>
    <linearGradient id="edge" x1="14" y1="12" x2="52" y2="54" gradientUnits="userSpaceOnUse">
      <stop offset="0" stop-color="#ffffff"/>
      <stop offset="0.22" stop-color="#9df7ff"/>
      <stop offset="0.58" stop-color="#0ee7ff"/>
      <stop offset="1" stop-color="#8b5cf6"/>
    </linearGradient>
    <linearGradient id="core" x1="22" y1="20" x2="44" y2="44" gradientUnits="userSpaceOnUse">
      <stop offset="0" stop-color="#9dffff"/>
      <stop offset="0.38" stop-color="#0ee7ff"/>
      <stop offset="0.72" stop-color="#3b82f6"/>
      <stop offset="1" stop-color="#8b5cf6"/>
    </linearGradient>
    <linearGradient id="text-main" x1="80" y1="12" x2="265" y2="48" gradientUnits="userSpaceOnUse">
      <stop offset="0" stop-color="#ffffff"/>
      <stop offset="0.55" stop-color="#e8fbff"/>
      <stop offset="1" stop-color="#9df7ff"/>
    </linearGradient>
    <linearGradient id="text-cloud" x1="178" y1="12" x2="280" y2="48" gradientUnits="userSpaceOnUse">
      <stop offset="0" stop-color="#32f5ff"/>
      <stop offset="0.58" stop-color="#0ee7ff"/>
      <stop offset="1" stop-color="#7dd3fc"/>
    </linearGradient>
    <filter id="shadow" x="-16" y="-14" width="330" height="100" color-interpolation-filters="sRGB">
      <feDropShadow dx="0" dy="4" stdDeviation="4" flood-color="#000814" flood-opacity="0.58"/>
    </filter>
  </defs>
  <rect width="300" height="64" fill="transparent"/>
  <g filter="url(#shadow)">
    <rect x="6" y="6" width="52" height="52" rx="14" fill="url(#tile)"/>
    <path d="M32 14L50 24V44L32 54L14 44V24L32 14Z" fill="#061028" fill-opacity="0.9" stroke="url(#edge)" stroke-width="2.8" stroke-linejoin="round"/>
    <path d="M32 22L43 28V40L32 47L21 40V28L32 22Z" fill="url(#core)" opacity="0.94"/>
    <path d="M14 32C20 23 32 20 42 25" stroke="#d9fbff" stroke-opacity="0.82" stroke-width="2.5" stroke-linecap="round"/>
    <path d="M50 32C43 42 29 45 19 37" stroke="#8b5cf6" stroke-opacity="0.95" stroke-width="3.1" stroke-linecap="round"/>
    <circle cx="32" cy="33" r="4" fill="#04101f"/>
    <circle cx="32" cy="33" r="1.9" fill="#b8fbff"/>
    <circle cx="14" cy="32" r="2.6" fill="#0ee7ff"/>
    <circle cx="50" cy="32" r="2.6" fill="#8b5cf6"/>
    <text x="76" y="41" font-family="Space Grotesk, Sora, Inter, Arial, sans-serif" font-weight="700" font-size="27" letter-spacing="-0.3" fill="#071126" opacity="0.72" transform="translate(2 3)">Qentra</text>
    <text x="76" y="41" font-family="Space Grotesk, Sora, Inter, Arial, sans-serif" font-weight="700" font-size="27" letter-spacing="-0.3" fill="url(#text-main)">Qentra</text>
    <text x="171" y="41" font-family="Space Grotesk, Sora, Inter, Arial, sans-serif" font-weight="700" font-size="27" letter-spacing="-0.3" fill="url(#text-cloud)">.cloud</text>
    <path d="M78 50H246" stroke="#0ee7ff" stroke-opacity="0.22" stroke-width="1.2" stroke-linecap="round"/>
  </g>
</svg>
